<svg xmlns="http://www.w3.org/2000/svg" xmlns:xlink="http://www.w3.org/1999/xlink" width="500" zoomAndPan="magnify" viewBox="0 0 375 374.999991" height="500" preserveAspectRatio="xMidYMid meet" version="1.0"><defs><clipPath id="8baee4f8e1"><path d="M 0 37.5 L 375 37.5 L 375 357 L 0 357 Z M 0 37.5 " clip-rule="nonzero"/></clipPath></defs><path fill="#ffffff" d="M 220.550781 169.699219 C 220.550781 170.78125 220.496094 171.863281 220.390625 172.941406 C 220.285156 174.015625 220.125 175.085938 219.914062 176.148438 C 219.703125 177.210938 219.441406 178.257812 219.128906 179.292969 C 218.8125 180.328125 218.449219 181.347656 218.035156 182.347656 C 217.621094 183.347656 217.15625 184.324219 216.648438 185.28125 C 216.136719 186.234375 215.582031 187.160156 214.980469 188.0625 C 214.378906 188.960938 213.734375 189.832031 213.046875 190.667969 C 212.363281 191.503906 211.636719 192.304688 210.871094 193.070312 C 210.105469 193.835938 209.304688 194.5625 208.46875 195.25 C 207.628906 195.933594 206.761719 196.578125 205.863281 197.179688 C 204.960938 197.78125 204.035156 198.335938 203.078125 198.847656 C 202.125 199.359375 201.148438 199.820312 200.148438 200.234375 C 199.148438 200.648438 198.128906 201.011719 197.09375 201.328125 C 196.058594 201.640625 195.007812 201.90625 193.949219 202.117188 C 192.886719 202.328125 191.816406 202.484375 190.738281 202.589844 C 189.664062 202.699219 188.582031 202.75 187.5 202.75 C 186.417969 202.75 185.335938 202.699219 184.261719 202.589844 C 183.183594 202.484375 182.113281 202.328125 181.050781 202.117188 C 179.992188 201.90625 178.941406 201.640625 177.90625 201.328125 C 176.871094 201.011719 175.851562 200.648438 174.851562 200.234375 C 173.851562 199.820312 172.875 199.359375 171.921875 198.847656 C 170.964844 198.335938 170.039062 197.78125 169.136719 197.179688 C 168.238281 196.578125 167.371094 195.933594 166.53125 195.25 C 165.695312 194.5625 164.894531 193.835938 164.128906 193.070312 C 163.363281 192.304688 162.636719 191.503906 161.953125 190.667969 C 161.265625 189.832031 160.621094 188.960938 160.019531 188.0625 C 159.417969 187.160156 158.863281 186.234375 158.351562 185.28125 C 157.839844 184.324219 157.378906 183.347656 156.964844 182.347656 C 156.550781 181.347656 156.1875 180.328125 155.871094 179.292969 C 155.558594 178.257812 155.296875 177.210938 155.085938 176.148438 C 154.875 175.085938 154.714844 174.015625 154.609375 172.941406 C 154.503906 171.863281 154.449219 170.78125 154.449219 169.699219 C 154.449219 168.617188 154.503906 167.539062 154.609375 166.460938 C 154.714844 165.382812 154.875 164.3125 155.085938 163.253906 C 155.296875 162.191406 155.558594 161.140625 155.871094 160.105469 C 156.1875 159.070312 156.550781 158.050781 156.964844 157.050781 C 157.378906 156.050781 157.839844 155.074219 158.351562 154.121094 C 158.863281 153.164062 159.417969 152.238281 160.019531 151.339844 C 160.621094 150.4375 161.265625 149.570312 161.953125 148.734375 C 162.636719 147.894531 163.363281 147.09375 164.128906 146.328125 C 164.894531 145.5625 165.695312 144.839844 166.53125 144.152344 C 167.371094 143.464844 168.238281 142.820312 169.136719 142.21875 C 170.039062 141.617188 170.964844 141.0625 171.921875 140.550781 C 172.875 140.042969 173.851562 139.578125 174.851562 139.164062 C 175.851562 138.75 176.871094 138.386719 177.90625 138.074219 C 178.941406 137.757812 179.992188 137.496094 181.050781 137.285156 C 182.113281 137.074219 183.183594 136.914062 184.261719 136.808594 C 185.335938 136.703125 186.417969 136.648438 187.5 136.648438 C 188.582031 136.648438 189.664062 136.703125 190.738281 136.808594 C 191.816406 136.914062 192.886719 137.074219 193.949219 137.285156 C 195.007812 137.496094 196.058594 137.757812 197.09375 138.074219 C 198.128906 138.386719 199.148438 138.75 200.148438 139.164062 C 201.148438 139.578125 202.125 140.042969 203.078125 140.550781 C 204.035156 141.0625 204.960938 141.617188 205.863281 142.21875 C 206.761719 142.820312 207.628906 143.464844 208.46875 144.152344 C 209.304688 144.839844 210.105469 145.5625 210.871094 146.328125 C 211.636719 147.09375 212.363281 147.894531 213.046875 148.734375 C 213.734375 149.570312 214.378906 150.4375 214.980469 151.339844 C 215.582031 152.238281 216.136719 153.164062 216.648438 154.121094 C 217.15625 155.074219 217.621094 156.050781 218.035156 157.050781 C 218.449219 158.050781 218.8125 159.070312 219.128906 160.105469 C 219.441406 161.140625 219.703125 162.191406 219.914062 163.253906 C 220.125 164.3125 220.285156 165.382812 220.390625 166.460938 C 220.496094 167.539062 220.550781 168.617188 220.550781 169.699219 Z M 220.550781 169.699219 " fill-opacity="1" fill-rule="nonzero"/><path fill="#ffffff" d="M 308.683594 169.699219 C 308.683594 170.78125 308.632812 171.863281 308.527344 172.941406 C 308.421875 174.015625 308.261719 175.085938 308.050781 176.148438 C 307.839844 177.210938 307.578125 178.257812 307.261719 179.292969 C 306.949219 180.328125 306.582031 181.347656 306.167969 182.347656 C 305.753906 183.347656 305.292969 184.324219 304.78125 185.28125 C 304.273438 186.234375 303.714844 187.160156 303.117188 188.0625 C 302.515625 188.960938 301.871094 189.832031 301.183594 190.667969 C 300.496094 191.503906 299.769531 192.304688 299.003906 193.070312 C 298.238281 193.835938 297.4375 194.5625 296.601562 195.25 C 295.765625 195.933594 294.898438 196.578125 293.996094 197.179688 C 293.097656 197.78125 292.167969 198.335938 291.214844 198.847656 C 290.261719 199.359375 289.28125 199.820312 288.28125 200.234375 C 287.28125 200.648438 286.265625 201.011719 285.230469 201.328125 C 284.191406 201.640625 283.144531 201.90625 282.082031 202.117188 C 281.019531 202.328125 279.953125 202.484375 278.875 202.589844 C 277.796875 202.699219 276.71875 202.75 275.636719 202.75 C 274.550781 202.75 273.472656 202.699219 272.394531 202.589844 C 271.316406 202.484375 270.25 202.328125 269.1875 202.117188 C 268.125 201.90625 267.078125 201.640625 266.039062 201.328125 C 265.003906 201.011719 263.988281 200.648438 262.988281 200.234375 C 261.988281 199.820312 261.007812 199.359375 260.054688 198.847656 C 259.101562 198.335938 258.171875 197.78125 257.273438 197.179688 C 256.371094 196.578125 255.503906 195.933594 254.667969 195.25 C 253.832031 194.5625 253.03125 193.835938 252.265625 193.070312 C 251.5 192.304688 250.773438 191.503906 250.085938 190.667969 C 249.398438 189.832031 248.753906 188.960938 248.152344 188.0625 C 247.554688 187.160156 246.996094 186.234375 246.488281 185.28125 C 245.976562 184.324219 245.515625 183.347656 245.101562 182.347656 C 244.6875 181.347656 244.320312 180.328125 244.007812 179.292969 C 243.691406 178.257812 243.429688 177.210938 243.21875 176.148438 C 243.007812 175.085938 242.847656 174.015625 242.742188 172.941406 C 242.636719 171.863281 242.585938 170.78125 242.585938 169.699219 C 242.585938 168.617188 242.636719 167.539062 242.742188 166.460938 C 242.847656 165.382812 243.007812 164.3125 243.21875 163.253906 C 243.429688 162.191406 243.691406 161.140625 244.007812 160.105469 C 244.320312 159.070312 244.6875 158.050781 245.101562 157.050781 C 245.515625 156.050781 245.976562 155.074219 246.488281 154.121094 C 246.996094 153.164062 247.554688 152.238281 248.152344 151.339844 C 248.753906 150.4375 249.398438 149.570312 250.085938 148.734375 C 250.773438 147.894531 251.5 147.09375 252.265625 146.328125 C 253.03125 145.5625 253.832031 144.839844 254.667969 144.152344 C 255.503906 143.464844 256.371094 142.820312 257.273438 142.21875 C 258.171875 141.617188 259.101562 141.0625 260.054688 140.550781 C 261.007812 140.042969 261.988281 139.578125 262.988281 139.164062 C 263.988281 138.75 265.003906 138.386719 266.039062 138.074219 C 267.078125 137.757812 268.125 137.496094 269.1875 137.285156 C 270.25 137.074219 271.316406 136.914062 272.394531 136.808594 C 273.472656 136.703125 274.550781 136.648438 275.636719 136.648438 C 276.71875 136.648438 277.796875 136.703125 278.875 136.808594 C 279.953125 136.914062 281.019531 137.074219 282.082031 137.285156 C 283.144531 137.496094 284.191406 137.757812 285.230469 138.074219 C 286.265625 138.386719 287.28125 138.75 288.28125 139.164062 C 289.28125 139.578125 290.261719 140.042969 291.214844 140.550781 C 292.167969 141.0625 293.097656 141.617188 293.996094 142.21875 C 294.898438 142.820312 295.765625 143.464844 296.601562 144.152344 C 297.4375 144.839844 298.238281 145.5625 299.003906 146.328125 C 299.769531 147.09375 300.496094 147.894531 301.183594 148.734375 C 301.871094 149.570312 302.515625 150.4375 303.117188 151.339844 C 303.714844 152.238281 304.273438 153.164062 304.78125 154.121094 C 305.292969 155.074219 305.753906 156.050781 306.167969 157.050781 C 306.582031 158.050781 306.949219 159.070312 307.261719 160.105469 C 307.578125 161.140625 307.839844 162.191406 308.050781 163.253906 C 308.261719 164.3125 308.421875 165.382812 308.527344 166.460938 C 308.632812 167.539062 308.683594 168.617188 308.683594 169.699219 Z M 308.683594 169.699219 " fill-opacity="1" fill-rule="nonzero"/><path fill="#ffffff" d="M 132.414062 169.699219 C 132.414062 170.78125 132.363281 171.863281 132.257812 172.941406 C 132.152344 174.015625 131.992188 175.085938 131.78125 176.148438 C 131.570312 177.210938 131.308594 178.257812 130.992188 179.292969 C 130.679688 180.328125 130.3125 181.347656 129.898438 182.347656 C 129.484375 183.347656 129.023438 184.324219 128.511719 185.28125 C 128.003906 186.234375 127.445312 187.160156 126.84375 188.0625 C 126.246094 188.960938 125.601562 189.832031 124.914062 190.667969 C 124.226562 191.503906 123.5 192.304688 122.734375 193.070312 C 121.96875 193.835938 121.167969 194.5625 120.332031 195.25 C 119.496094 195.933594 118.628906 196.578125 117.726562 197.179688 C 116.828125 197.78125 115.898438 198.335938 114.945312 198.847656 C 113.992188 199.359375 113.011719 199.820312 112.011719 200.234375 C 111.011719 200.648438 109.996094 201.011719 108.960938 201.328125 C 107.921875 201.640625 106.875 201.90625 105.8125 202.117188 C 104.75 202.328125 103.683594 202.484375 102.605469 202.589844 C 101.527344 202.699219 100.449219 202.75 99.363281 202.75 C 98.28125 202.75 97.203125 202.699219 96.125 202.589844 C 95.046875 202.484375 93.980469 202.328125 92.917969 202.117188 C 91.855469 201.90625 90.808594 201.640625 89.769531 201.328125 C 88.734375 201.011719 87.71875 200.648438 86.71875 200.234375 C 85.71875 199.820312 84.738281 199.359375 83.785156 198.847656 C 82.832031 198.335938 81.902344 197.78125 81.003906 197.179688 C 80.101562 196.578125 79.234375 195.933594 78.398438 195.25 C 77.5625 194.5625 76.761719 193.835938 75.996094 193.070312 C 75.230469 192.304688 74.503906 191.503906 73.816406 190.667969 C 73.128906 189.832031 72.484375 188.960938 71.882812 188.0625 C 71.285156 187.160156 70.726562 186.234375 70.21875 185.28125 C 69.707031 184.324219 69.246094 183.347656 68.832031 182.347656 C 68.417969 181.347656 68.050781 180.328125 67.738281 179.292969 C 67.421875 178.257812 67.160156 177.210938 66.949219 176.148438 C 66.738281 175.085938 66.578125 174.015625 66.472656 172.941406 C 66.367188 171.863281 66.316406 170.78125 66.316406 169.699219 C 66.316406 168.617188 66.367188 167.539062 66.472656 166.460938 C 66.578125 165.382812 66.738281 164.3125 66.949219 163.253906 C 67.160156 162.191406 67.421875 161.140625 67.738281 160.105469 C 68.050781 159.070312 68.417969 158.050781 68.832031 157.050781 C 69.246094 156.050781 69.707031 155.074219 70.21875 154.121094 C 70.726562 153.164062 71.285156 152.238281 71.882812 151.339844 C 72.484375 150.4375 73.128906 149.570312 73.816406 148.734375 C 74.503906 147.894531 75.230469 147.09375 75.996094 146.328125 C 76.761719 145.5625 77.5625 144.839844 78.398438 144.152344 C 79.234375 143.464844 80.101562 142.820312 81.003906 142.21875 C 81.902344 141.617188 82.832031 141.0625 83.785156 140.550781 C 84.738281 140.042969 85.71875 139.578125 86.71875 139.164062 C 87.71875 138.75 88.734375 138.386719 89.769531 138.074219 C 90.808594 137.757812 91.855469 137.496094 92.917969 137.285156 C 93.980469 137.074219 95.046875 136.914062 96.125 136.808594 C 97.203125 136.703125 98.28125 136.648438 99.363281 136.648438 C 100.449219 136.648438 101.527344 136.703125 102.605469 136.808594 C 103.683594 136.914062 104.75 137.074219 105.8125 137.285156 C 106.875 137.496094 107.921875 137.757812 108.960938 138.074219 C 109.996094 138.386719 111.011719 138.75 112.011719 139.164062 C 113.011719 139.578125 113.992188 140.042969 114.945312 140.550781 C 115.898438 141.0625 116.828125 141.617188 117.726562 142.21875 C 118.628906 142.820312 119.496094 143.464844 120.332031 144.152344 C 121.167969 144.839844 121.96875 145.5625 122.734375 146.328125 C 123.5 147.09375 124.226562 147.894531 124.914062 148.734375 C 125.601562 149.570312 126.246094 150.4375 126.84375 151.339844 C 127.445312 152.238281 128.003906 153.164062 128.511719 154.121094 C 129.023438 155.074219 129.484375 156.050781 129.898438 157.050781 C 130.3125 158.050781 130.679688 159.070312 130.992188 160.105469 C 131.308594 161.140625 131.570312 162.191406 131.78125 163.253906 C 131.992188 164.3125 132.152344 165.382812 132.257812 166.460938 C 132.363281 167.539062 132.414062 168.617188 132.414062 169.699219 Z M 132.414062 169.699219 " fill-opacity="1" fill-rule="nonzero"/><g clip-path="url(#8baee4f8e1)"><path fill="#ffffff" d="M 313.828125 37.496094 L 61.171875 37.496094 C 27.558594 37.496094 0.214844 64.84375 0.214844 98.457031 L 0.214844 240.941406 C 0.214844 274.554688 27.558594 301.902344 61.171875 301.902344 L 99.363281 301.902344 L 99.363281 345.96875 C 99.363281 354.8125 109.246094 359.96875 116.492188 355.136719 L 196.34375 301.902344 L 313.828125 301.902344 C 347.441406 301.902344 374.785156 274.554688 374.785156 240.941406 L 374.785156 98.457031 C 374.785156 64.84375 347.441406 37.496094 313.828125 37.496094 Z M 352.753906 240.941406 C 352.753906 262.40625 335.292969 279.867188 313.828125 279.867188 L 193.007812 279.867188 C 190.832031 279.867188 188.707031 280.511719 186.898438 281.71875 L 121.398438 325.386719 L 121.398438 290.886719 C 121.398438 284.800781 116.464844 279.867188 110.382812 279.867188 L 61.171875 279.867188 C 39.707031 279.867188 22.246094 262.40625 22.246094 240.941406 L 22.246094 98.457031 C 22.246094 76.992188 39.707031 59.53125 61.171875 59.53125 L 313.828125 59.53125 C 335.292969 59.53125 352.753906 76.992188 352.753906 98.457031 Z M 352.753906 240.941406 " fill-opacity="1" fill-rule="nonzero"/></g></svg>