<svg xmlns="http://www.w3.org/2000/svg" xmlns:xlink="http://www.w3.org/1999/xlink" width="500" zoomAndPan="magnify" viewBox="0 0 375 374.999991" height="500" preserveAspectRatio="xMidYMid meet" version="1.0"><path fill="#ffffff" d="M 0 312.5 L 0 270.832031 C 0 259.316406 9.316406 250 20.832031 250 C 32.347656 250 41.667969 259.316406 41.667969 270.832031 L 41.667969 312.5 C 41.667969 323.996094 51.003906 333.332031 62.5 333.332031 L 312.5 333.332031 C 323.996094 333.332031 333.332031 323.996094 333.332031 312.5 L 333.332031 270.832031 C 333.332031 259.316406 342.652344 250 354.167969 250 C 365.683594 250 375 259.316406 375 270.832031 L 375 312.5 C 375 346.964844 346.964844 375 312.5 375 L 62.5 375 C 28.035156 375 0 346.964844 0 312.5 Z M 68.605469 110.269531 C 60.464844 118.40625 60.464844 131.59375 68.605469 139.730469 L 172.769531 243.894531 C 176.839844 247.964844 182.167969 250 187.5 250 C 192.832031 250 198.160156 247.964844 202.230469 243.894531 L 306.394531 139.730469 C 314.535156 131.59375 314.535156 118.40625 306.394531 110.269531 C 298.257812 102.132812 285.074219 102.132812 276.9375 110.269531 L 208.332031 178.875 L 208.332031 20.832031 C 208.332031 9.316406 199.015625 0 187.5 0 C 175.984375 0 166.667969 9.316406 166.667969 20.832031 L 166.667969 178.875 L 98.0625 110.269531 C 89.925781 102.132812 76.742188 102.132812 68.605469 110.269531 Z M 68.605469 110.269531 " fill-opacity="1" fill-rule="nonzero"/></svg>